<?xml version="1.0" encoding="UTF-8"?>
<svg id="Layer_2" data-name="Layer 2" xmlns="http://www.w3.org/2000/svg" xmlns:xlink="http://www.w3.org/1999/xlink" viewBox="0 0 228.41 45.38">
  <defs>
    <style>
      .cls-1 {
        filter: url(#drop-shadow-1);
      }

      .cls-2 {
        fill: #50305b;
      }

      .cls-2, .cls-3 {
        stroke: #fff;
        stroke-miterlimit: 10;
        stroke-width: .25px;
      }

      .cls-3 {
        fill: #0b4f5b;
      }
    </style>
    <filter id="drop-shadow-1" x="-3.63" y="-3.73" width="237.12" height="54.24" filterUnits="userSpaceOnUse">
      <feOffset dx=".72" dy=".72"/>
      <feGaussianBlur result="blur" stdDeviation="1.44"/>
      <feFlood flood-color="#231f20" flood-opacity=".75"/>
      <feComposite in2="blur" operator="in"/>
      <feComposite in="SourceGraphic"/>
    </filter>
  </defs>
  <g id="Layer_1-2" data-name="Layer 1">
    <g class="cls-1">
      <g>
        <path class="cls-3" d="M9.71,9.45v24.25c0,7.74-5.63,8.63-8.29,8.63-.78,0-1.3-.09-1.3-.09v-1.82s.47.09,1.15.09c2.08,0,6.25-.75,6.25-6.76V9.45h2.19ZM7.32.12h2.61v3.4h-2.61V.12Z"/>
        <path class="cls-3" d="M29.2,13.89c7.09,0,10.63,4.99,10.63,10.63,0,.51-.1,1.26-.1,1.26h-20.9c0,6.76,5.11,10.63,11.15,10.63,5,0,8.08-2.94,8.08-2.94l1.2,1.63s-3.65,3.22-9.27,3.22c-7.35,0-13.44-4.76-13.44-12.17,0-7.88,5.99-12.26,12.66-12.26ZM37.54,23.96c-.26-5.69-4.06-8.25-8.39-8.25-4.79,0-9.22,2.8-10.16,8.25h18.55Z"/>
        <path class="cls-3" d="M46.65,14.45h2.19v4.1c0,1.07-.21,1.91-.21,1.91h.1c.89-2.19,4.53-6.57,11.05-6.57s8.6,3.59,8.6,9.09v14.78h-2.19v-14.08c0-4.06-.57-7.88-6.41-7.88-4.9,0-9.22,3.08-10.53,7.41-.31.98-.42,2.05-.42,3.17v11.38h-2.19V14.45Z"/>
        <path class="cls-2" d="M77.76,23.85h-3.28v-1.77h3.28v-1.07c0-7.69,5.63-8.63,8.23-8.63.83,0,1.35.09,1.35.09v1.82s-.47-.09-1.2-.09c-2.08,0-6.2.75-6.2,6.76v1.12h7.14v1.77h-7.14v21.4h-2.19v-21.4Z"/>
        <path class="cls-2" d="M103.6,14.72c7.45,0,13.5,5.27,13.5,12.08s-6.04,12.36-13.5,12.36-13.5-5.41-13.5-12.36,6.04-12.08,13.5-12.08ZM103.6,37.24c6.2,0,11.2-4.52,11.2-10.45s-5-10.17-11.2-10.17-11.2,4.38-11.2,10.17,5,10.45,11.2,10.45Z"/>
        <path class="cls-2" d="M123.56,15.75h2.19v19.13c0,2.28,1.88,2.55,3.07,2.55.42,0,.78-.03.78-.03v1.27s-.47.07-.94.07c-1.51,0-5.11-.36-5.11-3.43V15.75Z"/>
        <path class="cls-2" d="M134.44,34.3s2.92,2.94,8.08,2.94c3.18,0,5.99-1.49,5.99-4.38,0-5.92-14.33-4.24-14.33-11.84,0-4.15,3.91-6.29,8.34-6.29,5.31,0,7.71,2.52,7.71,2.52l-1.3,1.59s-2.14-2.19-6.57-2.19c-2.97,0-5.89,1.21-5.89,4.24,0,6.06,14.33,4.24,14.33,11.98,0,3.73-3.54,6.29-8.34,6.29-6.3,0-9.43-3.36-9.43-3.36l1.41-1.49Z"/>
        <path class="cls-2" d="M169.04,14.72c7.45,0,13.5,5.27,13.5,12.08s-6.04,12.36-13.5,12.36-13.5-5.41-13.5-12.36,6.04-12.08,13.5-12.08ZM169.04,37.24c6.2,0,11.2-4.52,11.2-10.45s-5-10.17-11.2-10.17-11.2,4.38-11.2,10.17,5,10.45,11.2,10.45Z"/>
        <path class="cls-2" d="M189.26,15.28h2.19v4.1c0,1.07-.21,1.91-.21,1.91h.1c1.3-3.5,5.94-6.58,10-6.58,5.21,0,7.66,2.19,8.23,6.34h.1c1.46-3.26,5.42-6.34,9.9-6.34,6.72,0,8.7,3.54,8.7,9.09v14.78h-2.19v-14.08c0-4.38-.99-7.97-6.51-7.97-4.33,0-8.03,3.45-9.17,7.09-.37,1.07-.52,2.24-.52,3.59v11.38h-2.19v-14.08c0-4.01-.62-7.97-6.36-7.97-4.64,0-8.29,3.64-9.48,7.51-.31.98-.42,2.05-.42,3.17v11.38h-2.19V15.28Z"/>
      </g>
    </g>
  </g>
</svg>